<?xml version="1.0" encoding="UTF-8" standalone="no"?>
<svg width="18px" height="19px" viewBox="0 0 18 19" version="1.1" xmlns="http://www.w3.org/2000/svg" xmlns:xlink="http://www.w3.org/1999/xlink" xmlns:sketch="http://www.bohemiancoding.com/sketch/ns">
    <!-- Generator: Sketch 3.3 (11970) - http://www.bohemiancoding.com/sketch -->
    <title>Fill 29</title>
    <desc>Created with Sketch.</desc>
    <defs></defs>
    <g id="Page-1" stroke="none" stroke-width="1" fill="none" fill-rule="evenodd" sketch:type="MSPage">
        <g id="iPhone-6" sketch:type="MSArtboardGroup" transform="translate(-22.000000, -56.000000)" fill="#FFFFFF">
            <g id="bar-nav" sketch:type="MSLayerGroup" transform="translate(-1.000000, 0.000000)">
                <path d="M35.9375,66.4771707 L29.982875,66.4771707 L32.3015,68.7946707 C32.520875,69.0140457 32.520875,69.3740457 32.3015,69.5934207 C32.0815625,69.8127957 31.7255,69.8127957 31.5055625,69.5934207 L28.3235,66.4096707 C28.1890625,66.2746707 28.146875,66.0890457 28.1778125,65.9146707 C28.146875,65.7402957 28.1890625,65.5546707 28.3235,65.4196707 L31.5055625,62.2359207 C31.7255,62.0165457 32.0815625,62.0165457 32.3015,62.2359207 C32.520875,62.4609207 32.520875,62.8152957 32.3015,63.0346707 L29.982875,65.3521707 L35.9375,65.3521707 C36.248,65.3521707 36.5,65.6052957 36.5,65.9146707 C36.5,66.2240457 36.248,66.4771707 35.9375,66.4771707 L35.9375,66.4771707 Z M32,56.9146707 C27.02975,56.9146707 23,60.9421707 23,65.9146707 C23,70.8871707 27.02975,74.9146707 32,74.9146707 C36.97025,74.9146707 41,70.8871707 41,65.9146707 C41,60.9421707 36.97025,56.9146707 32,56.9146707 L32,56.9146707 Z" id="Fill-29" sketch:type="MSShapeGroup"></path>
            </g>
        </g>
    </g>
</svg>