<?xml version="1.0" encoding="UTF-8" standalone="no"?>
<svg width="17px" height="18px" viewBox="0 0 17 18" version="1.1" xmlns="http://www.w3.org/2000/svg" xmlns:xlink="http://www.w3.org/1999/xlink" xmlns:sketch="http://www.bohemiancoding.com/sketch/ns">
    <!-- Generator: Sketch 3.3 (11970) - http://www.bohemiancoding.com/sketch -->
    <title>Shape</title>
    <desc>Created with Sketch.</desc>
    <defs></defs>
    <g id="Page-1" stroke="none" stroke-width="1" fill="none" fill-rule="evenodd" sketch:type="MSPage">
        <g id="iPhone-6" sketch:type="MSArtboardGroup" transform="translate(-24.000000, -232.000000)" fill="#727272">
            <g id="side-nav" sketch:type="MSLayerGroup">
                <g id="list" transform="translate(20.137085, 184.759019)" sketch:type="MSShapeGroup">
                    <g id="icons" transform="translate(0.000000, 1.000000)">
                        <g id="ic_createdinvites" transform="translate(1.023475, 44.032881)">
                            <path d="M17.6585659,3.9820163 L16.2579944,2.55344487 L15.0522802,3.79115915 L13.8505659,2.55344487 L12.561423,3.8860163 L11.2728516,2.55344487 L9.89342301,3.9820163 L8.51285158,2.55344487 L7.13399444,3.9820163 L5.75399444,2.55344487 L4.41685158,3.9820163 L3.08028015,2.55344487 L3.08028015,4.26773058 L3.08028015,17.9825877 L3.08028015,19.6968734 L4.45742301,18.268302 L5.83456587,19.6968734 L7.02942301,18.4591592 L8.22542301,19.6968734 L9.51228015,18.3631592 L10.7985659,19.6968734 L12.1779944,18.268302 L13.557423,19.6968734 L14.937423,18.268302 L16.3162802,19.6968734 L17.6979944,18.268302 L19.0802802,19.6968734 L19.0802802,17.9825877 L19.0802802,4.26773058 L19.0802802,2.55344487 L17.6585659,3.9820163 L17.6585659,3.9820163 Z M16.2231373,15.4025877 L5.93742301,15.4025877 L5.93742301,13.1168734 L16.2231373,13.1168734 L16.2231373,15.4025877 L16.2231373,15.4025877 Z M16.2231373,11.9740163 L5.93742301,11.9740163 L5.93742301,9.68830201 L16.2231373,9.68830201 L16.2231373,11.9740163 L16.2231373,11.9740163 Z M16.2231373,8.54544487 L5.93742301,8.54544487 L5.93742301,6.25973058 L16.2231373,6.25973058 L16.2231373,8.54544487 L16.2231373,8.54544487 Z" id="Shape"></path>
                        </g>
                    </g>
                </g>
            </g>
        </g>
    </g>
</svg>