<?xml version="1.0" encoding="UTF-8" standalone="no"?>
<svg width="15px" height="23px" viewBox="0 0 15 23" version="1.1" xmlns="http://www.w3.org/2000/svg" xmlns:xlink="http://www.w3.org/1999/xlink" xmlns:sketch="http://www.bohemiancoding.com/sketch/ns">
    <!-- Generator: Sketch 3.3 (11970) - http://www.bohemiancoding.com/sketch -->
    <title>Shape Copy</title>
    <desc>Created with Sketch.</desc>
    <defs></defs>
    <g id="Page-1" stroke="none" stroke-width="1" fill="none" fill-rule="evenodd" sketch:type="MSPage">
        <g id="iPhone-6" sketch:type="MSArtboardGroup" transform="translate(-338.000000, -56.000000)" fill="#FAFAFA">
            <g id="bar-nav" sketch:type="MSLayerGroup" transform="translate(-1.000000, 0.000000)">
                <path d="M351.329795,69.6876738 L351.070349,69.9471095 L350.100723,68.9775235 C351.069616,67.7807482 351.653003,66.2600446 351.653003,64.6037603 C351.653003,60.7649915 348.529388,57.641503 344.690463,57.641503 C340.851538,57.641503 337.727922,60.7649915 337.727922,64.6037603 C337.727922,68.442529 340.851538,71.5660175 344.690463,71.5660175 C346.346815,71.5660175 347.86758,70.9826536 349.064404,70.0138006 L350.03403,70.9833865 L349.774583,71.2428222 L354.173443,75.641503 L355.727922,74.0870875 L351.329795,69.6876738 L351.329795,69.6876738 Z M344.691196,69.3674099 C342.064486,69.3674099 339.927352,67.2303634 339.927352,64.6037603 C339.927352,61.9771571 342.064486,59.8401106 344.691196,59.8401106 C347.317906,59.8401106 349.455039,61.9771571 349.455039,64.6037603 C349.455039,67.2303634 347.317173,69.3674099 344.691196,69.3674099 L344.691196,69.3674099 Z" id="Shape-Copy" sketch:type="MSShapeGroup" transform="translate(346.727922, 66.641503) rotate(-315.000000) translate(-346.727922, -66.641503) "></path>
            </g>
        </g>
    </g>
</svg>