<?xml version="1.0" encoding="UTF-8" standalone="no"?>
<svg width="15px" height="19px" viewBox="0 0 15 19" version="1.1" xmlns="http://www.w3.org/2000/svg" xmlns:xlink="http://www.w3.org/1999/xlink" xmlns:sketch="http://www.bohemiancoding.com/sketch/ns">
    <!-- Generator: Sketch 3.3 (11970) - http://www.bohemiancoding.com/sketch -->
    <title>ic_previnvites</title>
    <desc>Created with Sketch.</desc>
    <defs></defs>
    <g id="Page-1" stroke="none" stroke-width="1" fill="none" fill-rule="evenodd" sketch:type="MSPage">
        <g id="iPhone-6" sketch:type="MSArtboardGroup" transform="translate(-25.000000, -273.000000)">
            <g id="side-nav" sketch:type="MSLayerGroup">
                <g id="list" transform="translate(20.137085, 184.759019)" sketch:type="MSShapeGroup">
                    <g id="icons" transform="translate(0.000000, 1.000000)">
                        <g id="ic_previnvites" transform="translate(4.862915, 88.065763)">
                            <rect id="bounds" x="1" y="2.64516129" width="12.8674221" height="12.9195397"></rect>
                            <path d="M12.5789911,0.104931122 L7.15371106,0.104931122 L7.15371106,6.18953112 L5.19371106,4.98953112 L3.23371106,6.18953112 L3.23371106,0.104931122 L1.93899106,0.104931122 C1.01107106,0.104931122 0.433711057,0.995331122 0.433711057,1.98953112 L0.433711057,16.3895311 C0.433711057,17.3843311 1.01051106,18.1049311 1.93899106,18.1049311 L12.5789911,18.1049311 C13.5069111,18.1049311 14.4337111,17.3843311 14.4337111,16.3895311 L14.4337111,1.98953112 C14.4337111,0.995331122 13.5069111,0.104931122 12.5789911,0.104931122 L12.5789911,0.104931122 Z" id="Shape" fill="#727272"></path>
                        </g>
                    </g>
                </g>
            </g>
        </g>
    </g>
</svg>