<?xml version="1.0" encoding="UTF-8" standalone="no"?>
<svg width="19px" height="19px" viewBox="0 0 19 19" version="1.1" xmlns="http://www.w3.org/2000/svg" xmlns:xlink="http://www.w3.org/1999/xlink" xmlns:sketch="http://www.bohemiancoding.com/sketch/ns">
    <!-- Generator: Sketch 3.3 (11970) - http://www.bohemiancoding.com/sketch -->
    <title>ic_settings</title>
    <desc>Created with Sketch.</desc>
    <defs></defs>
    <g id="Page-1" stroke="none" stroke-width="1" fill="none" fill-rule="evenodd" sketch:type="MSPage">
        <g id="iPhone-6" sketch:type="MSArtboardGroup" transform="translate(-23.000000, -454.000000)" fill="#727272">
            <g id="side-nav" sketch:type="MSLayerGroup">
                <g id="list" transform="translate(20.137085, 184.759019)" sketch:type="MSShapeGroup">
                    <g id="icons" transform="translate(0.000000, 1.000000)">
                        <g id="setting" transform="translate(0.862915, 267.003820)">
                            <path d="M18.1492143,10.8804286 C18.1492143,10.5178571 18.1132143,10.1649286 18.0605,9.81714286 L20.1575,8.60664286 L17.5860714,4.15292857 L15.5938571,5.36085714 C15.0416429,4.91857143 14.4926429,4.55985714 13.8497857,4.29757143 L13.8497857,2 L8.70692857,2 L8.70692857,4.29757143 C8.06407143,4.55985714 7.31578571,4.91921429 6.76357143,5.36085714 L4.61964286,4.15292857 L2.02314286,8.60664286 L4.10728571,9.81714286 C4.05457143,10.1649286 4.01278571,10.5178571 4.01278571,10.8804286 C4.01278571,11.2417143 4.04557143,11.5946429 4.09764286,11.9424286 L2,13.1529286 L4.5695,17.6066429 L6.76228571,16.3987143 C7.3145,16.8416429 8.06407143,17.1997143 8.70692857,17.462 L8.70692857,20 L13.8497857,20 L13.8497857,17.4626429 C14.4926429,17.2003571 15.0416429,16.8422857 15.5951429,16.3993571 L17.6362143,17.6072857 L20.1825714,13.1535714 L18.0733571,11.9430714 C18.1254286,11.5952857 18.1492143,11.2423571 18.1492143,10.8804286 L18.1492143,10.8804286 Z M11.0777857,14.0947143 C9.30221429,14.0947143 7.8635,12.656 7.8635,10.8804286 C7.8635,9.10485714 9.30221429,7.66614286 11.0777857,7.66614286 C12.8533571,7.66614286 14.2920714,9.10485714 14.2920714,10.8804286 C14.2920714,12.656 12.8527143,14.0947143 11.0777857,14.0947143 L11.0777857,14.0947143 Z" id="ic_settings"></path>
                        </g>
                    </g>
                </g>
            </g>
        </g>
    </g>
</svg>