<?xml version="1.0" encoding="UTF-8" standalone="no"?>
<svg width="19px" height="15px" viewBox="0 0 19 15" version="1.1" xmlns="http://www.w3.org/2000/svg" xmlns:xlink="http://www.w3.org/1999/xlink" xmlns:sketch="http://www.bohemiancoding.com/sketch/ns">
    <!-- Generator: Sketch 3.3 (11970) - http://www.bohemiancoding.com/sketch -->
    <title>ic_util</title>
    <desc>Created with Sketch.</desc>
    <defs></defs>
    <g id="Page-1" stroke="none" stroke-width="1" fill="none" fill-rule="evenodd" sketch:type="MSPage">
        <g id="iPhone-6" sketch:type="MSArtboardGroup" transform="translate(-23.000000, -413.000000)" fill="#727272">
            <g id="side-nav" sketch:type="MSLayerGroup">
                <g id="list" transform="translate(20.137085, 184.759019)" sketch:type="MSShapeGroup">
                    <g id="icons" transform="translate(0.000000, 1.000000)">
                        <g id="utilities" transform="translate(0.862915, 222.503183)">
                            <path d="M2.08074183,4.76461897 L2.08074183,11.3961979 L7.61920337,11.3961979 L7.61920337,4.76461897 L2.08074183,4.76461897 Z M8.31151106,4.76461897 L8.31151106,11.3961979 L13.8499726,11.3961979 L13.8499726,4.76461897 L8.31151106,4.76461897 Z M14.5422803,4.76461897 L14.5422803,11.3961979 L20.0807418,11.3961979 L20.0807418,4.76461897 L14.5422803,4.76461897 Z M2.08074183,12.13304 L2.08074183,18.764619 L7.61920337,18.764619 L7.61920337,12.13304 L2.08074183,12.13304 Z M8.31151106,12.13304 L8.31151106,18.764619 L13.8499726,18.764619 L13.8499726,12.13304 L8.31151106,12.13304 Z M14.5422803,12.13304 L14.5422803,18.764619 L20.0807418,18.764619 L20.0807418,12.13304 L14.5422803,12.13304 Z" id="ic_util"></path>
                        </g>
                    </g>
                </g>
            </g>
        </g>
    </g>
</svg>