<?xml version="1.0" encoding="UTF-8" standalone="no"?>
<svg width="18px" height="18px" viewBox="0 0 18 18" version="1.1" xmlns="http://www.w3.org/2000/svg" xmlns:xlink="http://www.w3.org/1999/xlink" xmlns:sketch="http://www.bohemiancoding.com/sketch/ns">
    <!-- Generator: Sketch 3.3 (11970) - http://www.bohemiancoding.com/sketch -->
    <title>Shape</title>
    <desc>Created with Sketch.</desc>
    <defs></defs>
    <g id="Page-1" stroke="none" stroke-width="1" fill="none" fill-rule="evenodd" sketch:type="MSPage">
        <g id="iPhone-6" sketch:type="MSArtboardGroup" transform="translate(-47.000000, -358.000000)" fill="#727272">
            <path d="M61.792,358 L59,358 L59,359.928571 L61.792,359.928571 C62.3433333,359.928571 63,360.5785 63,361.110143 L63,364.428571 L65,364.428571 L65,361.110143 C65,359.514571 63.446,358 61.792,358 Z M63,373.324429 C63,373.856071 62.3433333,374.071429 61.792,374.071429 L59,374.071429 L59,376 L61.792,376 C63.446,376 65,374.919357 65,373.324429 L65,370.214286 L63,370.214286 L63,373.324429 Z M49,373.324429 L49,370.214286 L47,370.214286 L47,373.324429 C47,374.919357 48.1373333,376 49.792,376 L53,376 L53,374.071429 L49.792,374.071429 C49.24,374.071429 49,373.856071 49,373.324429 Z M47,361.110143 L47,364.428571 L49,364.428571 L49,361.110143 C49,360.5785 49.24,359.928571 49.792,359.928571 L53,359.928571 L53,358 L49.792,358 C48.1373333,358 47,359.514571 47,361.110143 Z" id="Shape" sketch:type="MSShapeGroup"></path>
        </g>
    </g>
</svg>