<?xml version="1.0" encoding="UTF-8" standalone="no"?>
<svg width="64px" height="64px" viewBox="0 0 64 64" version="1.1" xmlns="http://www.w3.org/2000/svg" xmlns:xlink="http://www.w3.org/1999/xlink" xmlns:sketch="http://www.bohemiancoding.com/sketch/ns">
    <!-- Generator: Sketch 3.3 (11970) - http://www.bohemiancoding.com/sketch -->
    <title>button_hover</title>
    <desc>Created with Sketch.</desc>
    <defs>
        <filter x="-50%" y="-50%" width="200%" height="200%" filterUnits="objectBoundingBox" id="filter-1">
            <feOffset dx="0" dy="2" in="SourceAlpha" result="shadowOffsetOuter1"></feOffset>
            <feGaussianBlur stdDeviation="2" in="shadowOffsetOuter1" result="shadowBlurOuter1"></feGaussianBlur>
            <feColorMatrix values="0 0 0 0 0   0 0 0 0 0   0 0 0 0 0  0 0 0 0.35 0" in="shadowBlurOuter1" type="matrix" result="shadowMatrixOuter1"></feColorMatrix>
            <feMerge>
                <feMergeNode in="shadowMatrixOuter1"></feMergeNode>
                <feMergeNode in="SourceGraphic"></feMergeNode>
            </feMerge>
        </filter>
    </defs>
    <g id="Page-1" stroke="none" stroke-width="1" fill="none" fill-rule="evenodd" sketch:type="MSPage">
        <g id="iPhone-6" sketch:type="MSArtboardGroup" transform="translate(-299.000000, -592.000000)">
            <g id="button_hover" sketch:type="MSLayerGroup" transform="translate(303.000000, 594.000000)">
                <circle id="Oval-8" fill="#E91E63" filter="url(#filter-1)" sketch:type="MSShapeGroup" cx="28" cy="28" r="28"></circle>
                <path d="M30.8,25.2 L30.8,19.6 C30.8,18.053 29.5463,16.8 28,16.8 C26.4537,16.8 25.2,18.053 25.2,19.6 L25.2,25.2 L19.6,25.2 C18.0537,25.2 16.8,26.453 16.8,28 C16.8,29.547 18.0537,30.8 19.6,30.8 L25.2,30.8 L25.2,36.4 C25.2,37.947 26.4537,39.2 28,39.2 C29.5463,39.2 30.8,37.947 30.8,36.4 L30.8,30.8 L36.4,30.8 C37.9463,30.8 39.2,29.547 39.2,28 C39.2,26.453 37.9463,25.2 36.4,25.2 L30.8,25.2 Z" id="Fill-37" fill="#FFFFFF" sketch:type="MSShapeGroup"></path>
            </g>
        </g>
    </g>
</svg>