<?xml version="1.0" encoding="UTF-8" standalone="no"?>
<svg width="4px" height="16px" viewBox="0 0 4 16" version="1.1" xmlns="http://www.w3.org/2000/svg" xmlns:xlink="http://www.w3.org/1999/xlink" xmlns:sketch="http://www.bohemiancoding.com/sketch/ns">
    <!-- Generator: Sketch 3.3 (11970) - http://www.bohemiancoding.com/sketch -->
    <title>Shape</title>
    <desc>Created with Sketch.</desc>
    <defs></defs>
    <g id="Stickersheet" stroke="none" stroke-width="1" fill="none" fill-rule="evenodd" sketch:type="MSPage">
        <g id="components" sketch:type="MSLayerGroup" transform="translate(-3943.000000, -249.000000)" fill="#FFFFFF">
            <g id="tabs" transform="translate(3569.000000, 98.000000)" sketch:type="MSShapeGroup">
                <g id="title-with-tabs" transform="translate(39.000000, 107.000000)">
                    <g id="app-bar-+-status-bar">
                        <g id="app-bar">
                            <g id="app-bar-contents" transform="translate(16.000000, 40.000000)">
                                <g id="more" transform="translate(322.000000, 12.000000) scale(1, -1) translate(-322.000000, -12.000000) translate(316.000000, 0.000000)">
                                    <path d="M5,16 C6.1,16 7,16.9 7,18 C7,19.1 6.1,20 5,20 C3.9,20 3,19.1 3,18 C3,16.9 3.9,16 5,16 L5,16 Z M5,14 C3.9,14 3,13.1 3,12 C3,10.9 3.9,10 5,10 C6.1,10 7,10.9 7,12 C7,13.1 6.1,14 5,14 L5,14 Z M5,8 C3.9,8 3,7.1 3,6 C3,4.9 3.9,4 5,4 C6.1,4 7,4.9 7,6 C7,7.1 6.1,8 5,8 L5,8 Z" id="Shape"></path>
                                </g>
                            </g>
                        </g>
                    </g>
                </g>
            </g>
        </g>
    </g>
</svg>