<svg xmlns="http://www.w3.org/2000/svg" width="37" height="36" viewBox="0 0 37 36">
  <defs>
    <style>
      .cls-1 {
        fill: #f36;
        fill-rule: evenodd;
      }
    </style>
  </defs>
  <path id="Forma_1" data-name="Forma 1" class="cls-1" d="M37.242,16.622l-7.651,7.42L31.4,34.518A2.018,2.018,0,0,1,29.4,36.87a2.036,2.036,0,0,1-.941-0.231L19,31.693,9.543,36.64a2.034,2.034,0,0,1-2.13-.152,2.008,2.008,0,0,1-.8-1.968L8.415,24.042l-7.652-7.42a2.007,2.007,0,0,1,1.119-3.43l10.575-1.53L17.19,2.13a2.025,2.025,0,0,1,3.625,0l4.732,9.532,10.577,1.53A2.009,2.009,0,0,1,37.242,16.622Z"/>
</svg>
