<?xml version="1.0" encoding="UTF-8" standalone="no"?>
<svg width="75px" height="74px" viewBox="0 0 75 74" version="1.1" xmlns="http://www.w3.org/2000/svg" xmlns:xlink="http://www.w3.org/1999/xlink" xmlns:sketch="http://www.bohemiancoding.com/sketch/ns">
    <!-- Generator: Sketch 3.3 (11970) - http://www.bohemiancoding.com/sketch -->
    <title>button_hover</title>
    <desc>Created with Sketch.</desc>
    <defs>
        <filter x="-50%" y="-50%" width="200%" height="200%" filterUnits="objectBoundingBox" id="filter-1">
            <feOffset dx="0" dy="2" in="SourceAlpha" result="shadowOffsetOuter1"></feOffset>
            <feGaussianBlur stdDeviation="2" in="shadowOffsetOuter1" result="shadowBlurOuter1"></feGaussianBlur>
            <feColorMatrix values="0 0 0 0 0   0 0 0 0 0   0 0 0 0 0  0 0 0 0.35 0" in="shadowBlurOuter1" type="matrix" result="shadowMatrixOuter1"></feColorMatrix>
            <feMerge>
                <feMergeNode in="shadowMatrixOuter1"></feMergeNode>
                <feMergeNode in="SourceGraphic"></feMergeNode>
            </feMerge>
        </filter>
    </defs>
    <g id="Page-1" stroke="none" stroke-width="1" fill="none" fill-rule="evenodd" sketch:type="MSPage">
        <g id="iPhone-6" sketch:type="MSArtboardGroup" transform="translate(-300.000000, -593.000000)">
            <g id="button_hover" sketch:type="MSLayerGroup" transform="translate(303.000000, 594.000000)">
                <circle id="Oval-8" fill="#E91E63" filter="url(#filter-1)" sketch:type="MSShapeGroup" cx="88" cy="88" r="88"></circle>
                <path d="M96.8,79.2 L96.8,61.6 C96.8,56.738 92.8598,52.8 88,52.8 C83.1402,52.8 79.2,56.738 79.2,61.6 L79.2,79.2 L61.6,79.2 C56.7402,79.2 52.8,83.138 52.8,88 C52.8,92.862 56.7402,96.8 61.6,96.8 L79.2,96.8 L79.2,114.4 C79.2,119.262 83.1402,123.2 88,123.2 C92.8598,123.2 96.8,119.262 96.8,114.4 L96.8,96.8 L114.4,96.8 C119.2598,96.8 123.2,92.862 123.2,88 C123.2,83.138 119.2598,79.2 114.4,79.2 L96.8,79.2 Z" id="Fill-37" fill="#FFFFFF" sketch:type="MSShapeGroup"></path>
            </g>
        </g>
    </g>
</svg>