<?xml version="1.0" encoding="UTF-8" standalone="no"?>
<svg width="19px" height="18px" viewBox="0 0 19 18" version="1.1" xmlns="http://www.w3.org/2000/svg" xmlns:xlink="http://www.w3.org/1999/xlink" xmlns:sketch="http://www.bohemiancoding.com/sketch/ns">
    <!-- Generator: Sketch 3.3 (11970) - http://www.bohemiancoding.com/sketch -->
    <title>ic_invited</title>
    <desc>Created with Sketch.</desc>
    <defs></defs>
    <g id="Page-1" stroke="none" stroke-width="1" fill="none" fill-rule="evenodd" sketch:type="MSPage">
        <g id="iPhone-6-Copy-10" sketch:type="MSArtboardGroup" transform="translate(-47.000000, -288.000000)" fill="#4A78CA">
            <g id="invite-card" sketch:type="MSLayerGroup" transform="translate(22.000000, 111.000000)">
                <g id="sheet" transform="translate(25.000000, 96.000000)" sketch:type="MSShapeGroup">
                    <g id="basic">
                        <g id="invited-avatars" transform="translate(0.000000, 81.000000)">
                            <path d="M9.17436411,9.39130435 C11.659749,9.39130435 13.6745516,7.28898926 13.6745516,4.69565217 C13.6745516,2.10231509 11.659749,0 9.17436411,0 C6.68897918,0 4.67417661,2.10231509 4.67417661,4.69565217 C4.67417661,7.28898926 6.68897918,9.39130435 9.17436411,9.39130435 Z M17.5799643,14.2035652 C16.2539091,12.8817391 12.8757683,11.7195652 8.9988568,11.7195652 C5.12194526,11.7195652 1.88931057,12.8809565 0.565505412,14.2035652 C0.259492662,14.5095652 0.17473913,14.9313913 0.17473913,15.372 L0.17473913,18 L8.9411044,18 L18.1747391,18 L18.1747391,15.372 C18.1747391,14.9313913 17.884477,14.5087826 17.5799643,14.2035652 Z" id="ic_invited"></path>
                        </g>
                    </g>
                </g>
            </g>
        </g>
    </g>
</svg>