<?xml version="1.0" encoding="UTF-8" standalone="no"?>
<svg width="18px" height="18px" viewBox="0 0 18 18" version="1.1" xmlns="http://www.w3.org/2000/svg" xmlns:xlink="http://www.w3.org/1999/xlink" xmlns:sketch="http://www.bohemiancoding.com/sketch/ns">
    <!-- Generator: Sketch 3.3 (11970) - http://www.bohemiancoding.com/sketch -->
    <title>ic_invited</title>
    <desc>Created with Sketch.</desc>
    <defs></defs>
    <g id="Page-1" stroke="none" stroke-width="1" fill="none" fill-rule="evenodd" sketch:type="MSPage">
        <g id="iPhone-6" sketch:type="MSArtboardGroup" transform="translate(-47.000000, -288.000000)" fill-opacity="0.8" fill="#D0011B">
            <g id="invite-card" sketch:type="MSLayerGroup" transform="translate(22.000000, 111.000000)">
                <g id="sheet" transform="translate(25.000000, 96.000000)" sketch:type="MSShapeGroup">
                    <g id="basic">
                        <g id="invited-avatars" transform="translate(0.000000, 81.000000)">
                            <path d="M8.99962498,9.39130435 C11.4850099,9.39130435 13.4998125,7.28898926 13.4998125,4.69565217 C13.4998125,2.10231509 11.4850099,0 8.99962498,0 C6.51424005,0 4.49943748,2.10231509 4.49943748,4.69565217 C4.49943748,7.28898926 6.51424005,9.39130435 8.99962498,9.39130435 Z M17.4052252,14.2035652 C16.07917,12.8817391 12.7010292,11.7195652 8.82411767,11.7195652 C4.94720613,11.7195652 1.71457144,12.8809565 0.390766282,14.2035652 C0.0847535314,14.5095652 0,14.9313913 0,15.372 L0,18 L8.76636527,18 L18,18 L18,15.372 C18,14.9313913 17.7097379,14.5087826 17.4052252,14.2035652 Z" id="ic_invited"></path>
                        </g>
                    </g>
                </g>
            </g>
        </g>
    </g>
</svg>