<?xml version="1.0" encoding="UTF-8" standalone="no"?>
<svg width="19px" height="21px" viewBox="0 0 19 21" version="1.1" xmlns="http://www.w3.org/2000/svg" xmlns:xlink="http://www.w3.org/1999/xlink" xmlns:sketch="http://www.bohemiancoding.com/sketch/ns">
    <!-- Generator: Sketch 3.3 (11970) - http://www.bohemiancoding.com/sketch -->
    <title>ic_time</title>
    <desc>Created with Sketch.</desc>
    <defs></defs>
    <g id="Page-1" stroke="none" stroke-width="1" fill="none" fill-rule="evenodd" sketch:type="MSPage">
        <g id="iPhone-6-Copy-11" sketch:type="MSArtboardGroup" transform="translate(-47.000000, -247.000000)" fill-opacity="0.8" fill="#BD0FE1">
            <g id="invite-card" sketch:type="MSLayerGroup" transform="translate(22.000000, 111.000000)">
                <g id="sheet" transform="translate(25.000000, 96.000000)" sketch:type="MSShapeGroup">
                    <g id="basic">
                        <path d="M9.4207029,53.7083333 C8.27354905,53.7083333 7.34377982,52.813 7.34377982,51.7083333 C7.34377982,50.8383333 7.92393367,50.1063333 8.72839521,49.831 L8.72839521,46.375 C8.72839521,46.007 9.03785674,45.7083333 9.4207029,45.7083333 C9.80354905,45.7083333 10.1130106,46.007 10.1130106,46.375 L10.1130106,49.831 C10.9174721,50.1063333 11.497626,50.8383333 11.497626,51.7083333 C11.497626,52.813 10.5678567,53.7083333 9.4207029,53.7083333 L9.4207029,53.7083333 Z M10.1060875,43.075 L10.1130106,41.7083333 L12.8822414,41.7083333 C13.2650875,41.7083333 13.5745491,41.4103333 13.5745491,41.0416667 C13.5745491,40.673 13.2650875,40.375 12.8822414,40.375 L5.95916444,40.375 C5.57631828,40.375 5.26685674,40.673 5.26685674,41.0416667 C5.26685674,41.4103333 5.57631828,41.7083333 5.95916444,41.7083333 L8.72839521,41.7083333 L8.72839521,43.0416667 L8.73531828,43.075 C4.08647213,43.4136667 0.420702899,47.1443333 0.420702899,51.7083333 C0.420702899,56.495 4.44993367,60.375 9.4207029,60.375 C14.3914721,60.375 18.4207029,56.495 18.4207029,51.7083333 C18.4207029,47.1443333 14.7549337,43.4136667 10.1060875,43.075 L10.1060875,43.075 Z" id="ic_time"></path>
                    </g>
                </g>
            </g>
        </g>
    </g>
</svg>